<svg id="visual" viewBox="0 0 960 540" width="960" height="540" xmlns="http://www.w3.org/2000/svg" xmlns:xlink="http://www.w3.org/1999/xlink" version="1.1"><rect x="0" y="0" width="960" height="540" fill="#9FC2CC"></rect><path d="M0 424L13.3 422.2C26.7 420.3 53.3 416.7 80 418.8C106.7 421 133.3 429 160 440.3C186.7 451.7 213.3 466.3 240 463.7C266.7 461 293.3 441 320 440.7C346.7 440.3 373.3 459.7 400 456C426.7 452.3 453.3 425.7 480 417.5C506.7 409.3 533.3 419.7 560 426.3C586.7 433 613.3 436 640 434.8C666.7 433.7 693.3 428.3 720 422.7C746.7 417 773.3 411 800 419.3C826.7 427.7 853.3 450.3 880 463.5C906.7 476.7 933.3 480.3 946.7 482.2L960 484L960 541L946.7 541C933.3 541 906.7 541 880 541C853.3 541 826.7 541 800 541C773.3 541 746.7 541 720 541C693.3 541 666.7 541 640 541C613.3 541 586.7 541 560 541C533.3 541 506.7 541 480 541C453.3 541 426.7 541 400 541C373.3 541 346.7 541 320 541C293.3 541 266.7 541 240 541C213.3 541 186.7 541 160 541C133.3 541 106.7 541 80 541C53.3 541 26.7 541 13.3 541L0 541Z" fill="#202C39" stroke-linecap="round" stroke-linejoin="miter"></path></svg>