<svg id="visual" viewBox="0 0 960 540" width="960" height="540" xmlns="http://www.w3.org/2000/svg" xmlns:xlink="http://www.w3.org/1999/xlink" version="1.1"><rect x="0" y="0" width="960" height="540" fill="#161E27"></rect><path d="M0 379L22.8 380.3C45.7 381.7 91.3 384.3 137 391.2C182.7 398 228.3 409 274 414.5C319.7 420 365.3 420 411.2 414.7C457 409.3 503 398.7 548.8 399.8C594.7 401 640.3 414 686 417.5C731.7 421 777.3 415 823 407.5C868.7 400 914.3 391 937.2 386.5L960 382L960 541L937.2 541C914.3 541 868.7 541 823 541C777.3 541 731.7 541 686 541C640.3 541 594.7 541 548.8 541C503 541 457 541 411.2 541C365.3 541 319.7 541 274 541C228.3 541 182.7 541 137 541C91.3 541 45.7 541 22.8 541L0 541Z" fill="#cf5c36"></path><path d="M0 410L22.8 411.2C45.7 412.3 91.3 414.7 137 421.8C182.7 429 228.3 441 274 438.8C319.7 436.7 365.3 420.3 411.2 416.5C457 412.7 503 421.3 548.8 426.7C594.7 432 640.3 434 686 435.2C731.7 436.3 777.3 436.7 823 432C868.7 427.3 914.3 417.7 937.2 412.8L960 408L960 541L937.2 541C914.3 541 868.7 541 823 541C777.3 541 731.7 541 686 541C640.3 541 594.7 541 548.8 541C503 541 457 541 411.2 541C365.3 541 319.7 541 274 541C228.3 541 182.7 541 137 541C91.3 541 45.7 541 22.8 541L0 541Z" fill="#c05531"></path><path d="M0 469L22.8 463.7C45.7 458.3 91.3 447.7 137 446C182.7 444.3 228.3 451.7 274 452.7C319.7 453.7 365.3 448.3 411.2 447C457 445.7 503 448.3 548.8 450.3C594.7 452.3 640.3 453.7 686 451.7C731.7 449.7 777.3 444.3 823 446C868.7 447.7 914.3 456.3 937.2 460.7L960 465L960 541L937.2 541C914.3 541 868.7 541 823 541C777.3 541 731.7 541 686 541C640.3 541 594.7 541 548.8 541C503 541 457 541 411.2 541C365.3 541 319.7 541 274 541C228.3 541 182.7 541 137 541C91.3 541 45.7 541 22.8 541L0 541Z" fill="#b14e2d"></path><path d="M0 495L22.8 488.5C45.7 482 91.3 469 137 464.5C182.7 460 228.3 464 274 467C319.7 470 365.3 472 411.2 475.2C457 478.3 503 482.7 548.8 483C594.7 483.3 640.3 479.7 686 476.2C731.7 472.7 777.3 469.3 823 466.5C868.7 463.7 914.3 461.3 937.2 460.2L960 459L960 541L937.2 541C914.3 541 868.7 541 823 541C777.3 541 731.7 541 686 541C640.3 541 594.7 541 548.8 541C503 541 457 541 411.2 541C365.3 541 319.7 541 274 541C228.3 541 182.7 541 137 541C91.3 541 45.7 541 22.8 541L0 541Z" fill="#a24728"></path><path d="M0 511L22.8 508.3C45.7 505.7 91.3 500.3 137 498.5C182.7 496.7 228.3 498.3 274 497.2C319.7 496 365.3 492 411.2 495.2C457 498.3 503 508.7 548.8 510.5C594.7 512.3 640.3 505.7 686 504.7C731.7 503.7 777.3 508.3 823 506.2C868.7 504 914.3 495 937.2 490.5L960 486L960 541L937.2 541C914.3 541 868.7 541 823 541C777.3 541 731.7 541 686 541C640.3 541 594.7 541 548.8 541C503 541 457 541 411.2 541C365.3 541 319.7 541 274 541C228.3 541 182.7 541 137 541C91.3 541 45.7 541 22.8 541L0 541Z" fill="#944024"></path></svg>