<svg id="visual" viewBox="0 0 960 540" width="960" height="540" xmlns="http://www.w3.org/2000/svg" xmlns:xlink="http://www.w3.org/1999/xlink" version="1.1"><rect x="0" y="0" width="960" height="540" fill="#001220"></rect><path d="M0 366L22.8 376C45.7 386 91.3 406 137 406.8C182.7 407.7 228.3 389.3 274 390C319.7 390.7 365.3 410.3 411.2 409.7C457 409 503 388 548.8 388.2C594.7 388.3 640.3 409.7 686 409.7C731.7 409.7 777.3 388.3 823 379.7C868.7 371 914.3 375 937.2 377L960 379L960 541L937.2 541C914.3 541 868.7 541 823 541C777.3 541 731.7 541 686 541C640.3 541 594.7 541 548.8 541C503 541 457 541 411.2 541C365.3 541 319.7 541 274 541C228.3 541 182.7 541 137 541C91.3 541 45.7 541 22.8 541L0 541Z" fill="#fa7268"></path><path d="M0 419L22.8 414.7C45.7 410.3 91.3 401.7 137 401.8C182.7 402 228.3 411 274 418C319.7 425 365.3 430 411.2 434.7C457 439.3 503 443.7 548.8 439C594.7 434.3 640.3 420.7 686 418.3C731.7 416 777.3 425 823 429C868.7 433 914.3 432 937.2 431.5L960 431L960 541L937.2 541C914.3 541 868.7 541 823 541C777.3 541 731.7 541 686 541C640.3 541 594.7 541 548.8 541C503 541 457 541 411.2 541C365.3 541 319.7 541 274 541C228.3 541 182.7 541 137 541C91.3 541 45.7 541 22.8 541L0 541Z" fill="#ef5f67"></path><path d="M0 466L22.8 463.2C45.7 460.3 91.3 454.7 137 448.3C182.7 442 228.3 435 274 437.8C319.7 440.7 365.3 453.3 411.2 458.2C457 463 503 460 548.8 461.3C594.7 462.7 640.3 468.3 686 471C731.7 473.7 777.3 473.3 823 466C868.7 458.7 914.3 444.3 937.2 437.2L960 430L960 541L937.2 541C914.3 541 868.7 541 823 541C777.3 541 731.7 541 686 541C640.3 541 594.7 541 548.8 541C503 541 457 541 411.2 541C365.3 541 319.7 541 274 541C228.3 541 182.7 541 137 541C91.3 541 45.7 541 22.8 541L0 541Z" fill="#e34c67"></path><path d="M0 496L22.8 491.2C45.7 486.3 91.3 476.7 137 472.7C182.7 468.7 228.3 470.3 274 468.7C319.7 467 365.3 462 411.2 462.7C457 463.3 503 469.7 548.8 471.3C594.7 473 640.3 470 686 473.3C731.7 476.7 777.3 486.3 823 486.8C868.7 487.3 914.3 478.7 937.2 474.3L960 470L960 541L937.2 541C914.3 541 868.7 541 823 541C777.3 541 731.7 541 686 541C640.3 541 594.7 541 548.8 541C503 541 457 541 411.2 541C365.3 541 319.7 541 274 541C228.3 541 182.7 541 137 541C91.3 541 45.7 541 22.8 541L0 541Z" fill="#d53867"></path><path d="M0 485L22.8 485.8C45.7 486.7 91.3 488.3 137 493.5C182.7 498.7 228.3 507.3 274 510.3C319.7 513.3 365.3 510.7 411.2 510.3C457 510 503 512 548.8 511.3C594.7 510.7 640.3 507.3 686 506.5C731.7 505.7 777.3 507.3 823 508C868.7 508.7 914.3 508.3 937.2 508.2L960 508L960 541L937.2 541C914.3 541 868.7 541 823 541C777.3 541 731.7 541 686 541C640.3 541 594.7 541 548.8 541C503 541 457 541 411.2 541C365.3 541 319.7 541 274 541C228.3 541 182.7 541 137 541C91.3 541 45.7 541 22.8 541L0 541Z" fill="#c62368"></path></svg>