<svg id="visual" viewBox="0 0 960 540" width="960" height="540" xmlns="http://www.w3.org/2000/svg" xmlns:xlink="http://www.w3.org/1999/xlink" version="1.1"><rect x="0" y="0" width="960" height="540" fill="#161E27"></rect><path d="M0 383L22.8 386C45.7 389 91.3 395 137 401.8C182.7 408.7 228.3 416.3 274 410.2C319.7 404 365.3 384 411.2 381.7C457 379.3 503 394.7 548.8 404.3C594.7 414 640.3 418 686 411.5C731.7 405 777.3 388 823 385.8C868.7 383.7 914.3 396.3 937.2 402.7L960 409L960 541L937.2 541C914.3 541 868.7 541 823 541C777.3 541 731.7 541 686 541C640.3 541 594.7 541 548.8 541C503 541 457 541 411.2 541C365.3 541 319.7 541 274 541C228.3 541 182.7 541 137 541C91.3 541 45.7 541 22.8 541L0 541Z" fill="#cf5c36"></path><path d="M0 423L22.8 423.7C45.7 424.3 91.3 425.7 137 427.3C182.7 429 228.3 431 274 432.2C319.7 433.3 365.3 433.7 411.2 431.3C457 429 503 424 548.8 423.2C594.7 422.3 640.3 425.7 686 426.5C731.7 427.3 777.3 425.7 823 424.7C868.7 423.7 914.3 423.3 937.2 423.2L960 423L960 541L937.2 541C914.3 541 868.7 541 823 541C777.3 541 731.7 541 686 541C640.3 541 594.7 541 548.8 541C503 541 457 541 411.2 541C365.3 541 319.7 541 274 541C228.3 541 182.7 541 137 541C91.3 541 45.7 541 22.8 541L0 541Z" fill="#c05531"></path><path d="M0 451L22.8 454C45.7 457 91.3 463 137 462.5C182.7 462 228.3 455 274 450.8C319.7 446.7 365.3 445.3 411.2 447.3C457 449.3 503 454.7 548.8 452.7C594.7 450.7 640.3 441.3 686 442.7C731.7 444 777.3 456 823 455.5C868.7 455 914.3 442 937.2 435.5L960 429L960 541L937.2 541C914.3 541 868.7 541 823 541C777.3 541 731.7 541 686 541C640.3 541 594.7 541 548.8 541C503 541 457 541 411.2 541C365.3 541 319.7 541 274 541C228.3 541 182.7 541 137 541C91.3 541 45.7 541 22.8 541L0 541Z" fill="#b14e2d"></path><path d="M0 483L22.8 483.8C45.7 484.7 91.3 486.3 137 484C182.7 481.7 228.3 475.3 274 473.8C319.7 472.3 365.3 475.7 411.2 474C457 472.3 503 465.7 548.8 467.8C594.7 470 640.3 481 686 484.2C731.7 487.3 777.3 482.7 823 478C868.7 473.3 914.3 468.7 937.2 466.3L960 464L960 541L937.2 541C914.3 541 868.7 541 823 541C777.3 541 731.7 541 686 541C640.3 541 594.7 541 548.8 541C503 541 457 541 411.2 541C365.3 541 319.7 541 274 541C228.3 541 182.7 541 137 541C91.3 541 45.7 541 22.8 541L0 541Z" fill="#a24728"></path><path d="M0 498L22.8 499C45.7 500 91.3 502 137 500.7C182.7 499.3 228.3 494.7 274 493.2C319.7 491.7 365.3 493.3 411.2 494C457 494.7 503 494.3 548.8 495.8C594.7 497.3 640.3 500.7 686 501.8C731.7 503 777.3 502 823 503.2C868.7 504.3 914.3 507.7 937.2 509.3L960 511L960 541L937.2 541C914.3 541 868.7 541 823 541C777.3 541 731.7 541 686 541C640.3 541 594.7 541 548.8 541C503 541 457 541 411.2 541C365.3 541 319.7 541 274 541C228.3 541 182.7 541 137 541C91.3 541 45.7 541 22.8 541L0 541Z" fill="#944024"></path></svg>