<svg id="visual" viewBox="0 0 960 540" width="960" height="540" xmlns="http://www.w3.org/2000/svg" xmlns:xlink="http://www.w3.org/1999/xlink" version="1.1"><rect x="0" y="0" width="960" height="540" fill="#161E27"></rect><path d="M0 382L22.8 385.5C45.7 389 91.3 396 137 396.5C182.7 397 228.3 391 274 395.3C319.7 399.7 365.3 414.3 411.2 420.5C457 426.7 503 424.3 548.8 415C594.7 405.7 640.3 389.3 686 385C731.7 380.7 777.3 388.3 823 386.3C868.7 384.3 914.3 372.7 937.2 366.8L960 361L960 541L937.2 541C914.3 541 868.7 541 823 541C777.3 541 731.7 541 686 541C640.3 541 594.7 541 548.8 541C503 541 457 541 411.2 541C365.3 541 319.7 541 274 541C228.3 541 182.7 541 137 541C91.3 541 45.7 541 22.8 541L0 541Z" fill="#cf5c36"></path><path d="M0 406L22.8 410.8C45.7 415.7 91.3 425.3 137 431.8C182.7 438.3 228.3 441.7 274 440.8C319.7 440 365.3 435 411.2 434C457 433 503 436 548.8 438.5C594.7 441 640.3 443 686 435.7C731.7 428.3 777.3 411.7 823 412C868.7 412.3 914.3 429.7 937.2 438.3L960 447L960 541L937.2 541C914.3 541 868.7 541 823 541C777.3 541 731.7 541 686 541C640.3 541 594.7 541 548.8 541C503 541 457 541 411.2 541C365.3 541 319.7 541 274 541C228.3 541 182.7 541 137 541C91.3 541 45.7 541 22.8 541L0 541Z" fill="#c05531"></path><path d="M0 461L22.8 458.7C45.7 456.3 91.3 451.7 137 453.7C182.7 455.7 228.3 464.3 274 461.5C319.7 458.7 365.3 444.3 411.2 441.3C457 438.3 503 446.7 548.8 449.3C594.7 452 640.3 449 686 446.8C731.7 444.7 777.3 443.3 823 443.3C868.7 443.3 914.3 444.7 937.2 445.3L960 446L960 541L937.2 541C914.3 541 868.7 541 823 541C777.3 541 731.7 541 686 541C640.3 541 594.7 541 548.8 541C503 541 457 541 411.2 541C365.3 541 319.7 541 274 541C228.3 541 182.7 541 137 541C91.3 541 45.7 541 22.8 541L0 541Z" fill="#b14e2d"></path><path d="M0 482L22.8 479.5C45.7 477 91.3 472 137 470.2C182.7 468.3 228.3 469.7 274 471.5C319.7 473.3 365.3 475.7 411.2 475.8C457 476 503 474 548.8 475.5C594.7 477 640.3 482 686 482.2C731.7 482.3 777.3 477.7 823 477C868.7 476.3 914.3 479.7 937.2 481.3L960 483L960 541L937.2 541C914.3 541 868.7 541 823 541C777.3 541 731.7 541 686 541C640.3 541 594.7 541 548.8 541C503 541 457 541 411.2 541C365.3 541 319.7 541 274 541C228.3 541 182.7 541 137 541C91.3 541 45.7 541 22.8 541L0 541Z" fill="#a24728"></path><path d="M0 507L22.8 506.3C45.7 505.7 91.3 504.3 137 503.8C182.7 503.3 228.3 503.7 274 504C319.7 504.3 365.3 504.7 411.2 504.3C457 504 503 503 548.8 501.5C594.7 500 640.3 498 686 498.7C731.7 499.3 777.3 502.7 823 504.2C868.7 505.7 914.3 505.3 937.2 505.2L960 505L960 541L937.2 541C914.3 541 868.7 541 823 541C777.3 541 731.7 541 686 541C640.3 541 594.7 541 548.8 541C503 541 457 541 411.2 541C365.3 541 319.7 541 274 541C228.3 541 182.7 541 137 541C91.3 541 45.7 541 22.8 541L0 541Z" fill="#944024"></path></svg>