<svg id="visual" viewBox="0 0 960 540" width="960" height="540" xmlns="http://www.w3.org/2000/svg" xmlns:xlink="http://www.w3.org/1999/xlink" version="1.1"><rect x="0" y="0" width="960" height="540" fill="#161E27"></rect><path d="M0 382L22.8 385.3C45.7 388.7 91.3 395.3 137 397.5C182.7 399.7 228.3 397.3 274 400.3C319.7 403.3 365.3 411.7 411.2 416.8C457 422 503 424 548.8 425.5C594.7 427 640.3 428 686 419.7C731.7 411.3 777.3 393.7 823 394C868.7 394.3 914.3 412.7 937.2 421.8L960 431L960 541L937.2 541C914.3 541 868.7 541 823 541C777.3 541 731.7 541 686 541C640.3 541 594.7 541 548.8 541C503 541 457 541 411.2 541C365.3 541 319.7 541 274 541C228.3 541 182.7 541 137 541C91.3 541 45.7 541 22.8 541L0 541Z" fill="#cf5c36"></path><path d="M0 395L22.8 404.3C45.7 413.7 91.3 432.3 137 438.2C182.7 444 228.3 437 274 431.7C319.7 426.3 365.3 422.7 411.2 419C457 415.3 503 411.7 548.8 409C594.7 406.3 640.3 404.7 686 408.8C731.7 413 777.3 423 823 428.7C868.7 434.3 914.3 435.7 937.2 436.3L960 437L960 541L937.2 541C914.3 541 868.7 541 823 541C777.3 541 731.7 541 686 541C640.3 541 594.7 541 548.8 541C503 541 457 541 411.2 541C365.3 541 319.7 541 274 541C228.3 541 182.7 541 137 541C91.3 541 45.7 541 22.8 541L0 541Z" fill="#c05531"></path><path d="M0 447L22.8 449.8C45.7 452.7 91.3 458.3 137 457.8C182.7 457.3 228.3 450.7 274 444.3C319.7 438 365.3 432 411.2 433.7C457 435.3 503 444.7 548.8 452.2C594.7 459.7 640.3 465.3 686 468C731.7 470.7 777.3 470.3 823 462.8C868.7 455.3 914.3 440.7 937.2 433.3L960 426L960 541L937.2 541C914.3 541 868.7 541 823 541C777.3 541 731.7 541 686 541C640.3 541 594.7 541 548.8 541C503 541 457 541 411.2 541C365.3 541 319.7 541 274 541C228.3 541 182.7 541 137 541C91.3 541 45.7 541 22.8 541L0 541Z" fill="#b14e2d"></path><path d="M0 463L22.8 463.3C45.7 463.7 91.3 464.3 137 468.8C182.7 473.3 228.3 481.7 274 485.2C319.7 488.7 365.3 487.3 411.2 481.7C457 476 503 466 548.8 461.8C594.7 457.7 640.3 459.3 686 465.3C731.7 471.3 777.3 481.7 823 481.2C868.7 480.7 914.3 469.3 937.2 463.7L960 458L960 541L937.2 541C914.3 541 868.7 541 823 541C777.3 541 731.7 541 686 541C640.3 541 594.7 541 548.8 541C503 541 457 541 411.2 541C365.3 541 319.7 541 274 541C228.3 541 182.7 541 137 541C91.3 541 45.7 541 22.8 541L0 541Z" fill="#a24728"></path><path d="M0 519L22.8 515.2C45.7 511.3 91.3 503.7 137 499.3C182.7 495 228.3 494 274 493.8C319.7 493.7 365.3 494.3 411.2 495.7C457 497 503 499 548.8 501.3C594.7 503.7 640.3 506.3 686 503.8C731.7 501.3 777.3 493.7 823 492.5C868.7 491.3 914.3 496.7 937.2 499.3L960 502L960 541L937.2 541C914.3 541 868.7 541 823 541C777.3 541 731.7 541 686 541C640.3 541 594.7 541 548.8 541C503 541 457 541 411.2 541C365.3 541 319.7 541 274 541C228.3 541 182.7 541 137 541C91.3 541 45.7 541 22.8 541L0 541Z" fill="#944024"></path></svg>