<svg id="visual" viewBox="0 0 960 540" width="960" height="540" xmlns="http://www.w3.org/2000/svg" xmlns:xlink="http://www.w3.org/1999/xlink" version="1.1"><rect x="0" y="0" width="960" height="540" fill="#001220"></rect><path d="M0 395L22.8 397.5C45.7 400 91.3 405 137 407.7C182.7 410.3 228.3 410.7 274 407.5C319.7 404.3 365.3 397.7 411.2 400.3C457 403 503 415 548.8 418.2C594.7 421.3 640.3 415.7 686 414.3C731.7 413 777.3 416 823 418.8C868.7 421.7 914.3 424.3 937.2 425.7L960 427L960 541L937.2 541C914.3 541 868.7 541 823 541C777.3 541 731.7 541 686 541C640.3 541 594.7 541 548.8 541C503 541 457 541 411.2 541C365.3 541 319.7 541 274 541C228.3 541 182.7 541 137 541C91.3 541 45.7 541 22.8 541L0 541Z" fill="#fa7268"></path><path d="M0 444L22.8 444.2C45.7 444.3 91.3 444.7 137 441.8C182.7 439 228.3 433 274 431C319.7 429 365.3 431 411.2 434.5C457 438 503 443 548.8 436.8C594.7 430.7 640.3 413.3 686 404.3C731.7 395.3 777.3 394.7 823 396.7C868.7 398.7 914.3 403.3 937.2 405.7L960 408L960 541L937.2 541C914.3 541 868.7 541 823 541C777.3 541 731.7 541 686 541C640.3 541 594.7 541 548.8 541C503 541 457 541 411.2 541C365.3 541 319.7 541 274 541C228.3 541 182.7 541 137 541C91.3 541 45.7 541 22.8 541L0 541Z" fill="#ef5f67"></path><path d="M0 467L22.8 462.7C45.7 458.3 91.3 449.7 137 443C182.7 436.3 228.3 431.7 274 429.5C319.7 427.3 365.3 427.7 411.2 432.8C457 438 503 448 548.8 454.7C594.7 461.3 640.3 464.7 686 466C731.7 467.3 777.3 466.7 823 467.2C868.7 467.7 914.3 469.3 937.2 470.2L960 471L960 541L937.2 541C914.3 541 868.7 541 823 541C777.3 541 731.7 541 686 541C640.3 541 594.7 541 548.8 541C503 541 457 541 411.2 541C365.3 541 319.7 541 274 541C228.3 541 182.7 541 137 541C91.3 541 45.7 541 22.8 541L0 541Z" fill="#e34c67"></path><path d="M0 458L22.8 461C45.7 464 91.3 470 137 469.8C182.7 469.7 228.3 463.3 274 463.8C319.7 464.3 365.3 471.7 411.2 478.2C457 484.7 503 490.3 548.8 486.5C594.7 482.7 640.3 469.3 686 467.8C731.7 466.3 777.3 476.7 823 481.5C868.7 486.3 914.3 485.7 937.2 485.3L960 485L960 541L937.2 541C914.3 541 868.7 541 823 541C777.3 541 731.7 541 686 541C640.3 541 594.7 541 548.8 541C503 541 457 541 411.2 541C365.3 541 319.7 541 274 541C228.3 541 182.7 541 137 541C91.3 541 45.7 541 22.8 541L0 541Z" fill="#d53867"></path><path d="M0 516L22.8 513C45.7 510 91.3 504 137 504C182.7 504 228.3 510 274 508.7C319.7 507.3 365.3 498.7 411.2 494.7C457 490.7 503 491.3 548.8 493.7C594.7 496 640.3 500 686 501.8C731.7 503.7 777.3 503.3 823 500.5C868.7 497.7 914.3 492.3 937.2 489.7L960 487L960 541L937.2 541C914.3 541 868.7 541 823 541C777.3 541 731.7 541 686 541C640.3 541 594.7 541 548.8 541C503 541 457 541 411.2 541C365.3 541 319.7 541 274 541C228.3 541 182.7 541 137 541C91.3 541 45.7 541 22.8 541L0 541Z" fill="#c62368"></path></svg>