<svg id="visual" viewBox="0 0 960 540" width="960" height="540" xmlns="http://www.w3.org/2000/svg" xmlns:xlink="http://www.w3.org/1999/xlink" version="1.1"><rect x="0" y="0" width="960" height="540" fill="#D0CCD0"></rect><path d="M0 396L16 409C32 422 64 448 96 433.3C128 418.7 160 363.3 192 336.8C224 310.3 256 312.7 288 329C320 345.3 352 375.7 384 400.3C416 425 448 444 480 427.7C512 411.3 544 359.7 576 350.2C608 340.7 640 373.3 672 384.7C704 396 736 386 768 393.8C800 401.7 832 427.3 864 433.8C896 440.3 928 427.7 944 421.3L960 415L960 541L944 541C928 541 896 541 864 541C832 541 800 541 768 541C736 541 704 541 672 541C640 541 608 541 576 541C544 541 512 541 480 541C448 541 416 541 384 541C352 541 320 541 288 541C256 541 224 541 192 541C160 541 128 541 96 541C64 541 32 541 16 541L0 541Z" fill="#243561" stroke-linecap="round" stroke-linejoin="miter"></path></svg>